<?xml version="1.0" encoding="iso-8859-1"?>
<!-- Generator: Adobe Illustrator 19.2.0, SVG Export Plug-In . SVG Version: 6.00 Build 0)  -->
<svg xmlns="http://www.w3.org/2000/svg" xmlns:xlink="http://www.w3.org/1999/xlink" version="1.1" id="Layer_1" x="0px" y="0px" viewBox="0 0 40 40" style="enable-background:new 0 0 40 40;" xml:space="preserve">
<g>
	<polygon style="fill:#B6DCFE;" points="26.5,38.5 26.5,13.5 1.5,13.5 1.5,7.5 32.5,7.5 32.5,38.5  "/>
	<g>
		<path style="fill:#4788C7;" d="M32,8v30h-5V14v-1h-1H2V8H32 M33,7H1v7h25v25h7V7L33,7z"/>
	</g>
</g>
<g>
	<polygon style="fill:#DFF0FE;" points="6.5,33.5 6.5,2.5 12.5,2.5 12.5,27.5 37.5,27.5 37.5,33.5  "/>
	<g>
		<path style="fill:#4788C7;" d="M12,3v24v1h1h24v5H7V3H12 M13,2H6v32h32v-7H13V2L13,2z"/>
	</g>
</g>
<path style="fill:#4788C7;" d="M33.86,6.859l-0.99,0.99c-0.194,0.194-0.513,0.194-0.707,0v0c-0.194-0.194-0.194-0.513,0-0.707  l0.99-0.99c0.194-0.194,0.513-0.194,0.707,0v0C34.054,6.346,34.054,6.664,33.86,6.859z"/>
<path style="fill:#4788C7;" d="M36.854,3.853l-0.99,0.99c-0.194,0.194-0.513,0.194-0.707,0v0c-0.194-0.194-0.194-0.513,0-0.707  l0.99-0.99c0.194-0.194,0.513-0.194,0.707,0v0C37.049,3.34,37.049,3.658,36.854,3.853z"/>
<path style="fill:#4788C7;" d="M21.86,18.859l-0.99,0.99c-0.194,0.194-0.513,0.194-0.707,0h0c-0.194-0.194-0.194-0.513,0-0.707  l0.99-0.99c0.194-0.194,0.513-0.194,0.707,0h0C22.054,18.346,22.054,18.664,21.86,18.859z"/>
<path style="fill:#4788C7;" d="M24.854,15.853l-0.99,0.99c-0.194,0.194-0.513,0.194-0.707,0l0,0c-0.194-0.194-0.194-0.513,0-0.707  l0.99-0.99c0.194-0.194,0.513-0.194,0.707,0l0,0C25.049,15.34,25.049,15.658,24.854,15.853z"/>
<path style="fill:#4788C7;" d="M15.843,24.859l-0.99,0.99c-0.194,0.194-0.513,0.194-0.707,0h0c-0.194-0.194-0.194-0.513,0-0.707  l0.99-0.99c0.194-0.194,0.513-0.194,0.707,0h0C16.037,24.346,16.037,24.664,15.843,24.859z"/>
<path style="fill:#4788C7;" d="M18.837,21.853l-0.99,0.99c-0.194,0.194-0.513,0.194-0.707,0h0c-0.194-0.194-0.194-0.513,0-0.707  l0.99-0.99c0.194-0.194,0.513-0.194,0.707,0l0,0C19.032,21.34,19.032,21.658,18.837,21.853z"/>
</svg>
