<?xml version="1.0" encoding="utf-8"?>
<!-- Generator: Adobe Illustrator 19.1.1, SVG Export Plug-In . SVG Version: 6.00 Build 0)  -->
<svg version="1.1"  xmlns="http://www.w3.org/2000/svg" xmlns:xlink="http://www.w3.org/1999/xlink" x="0px" y="0px"
	 viewBox="0 0 48 48" enable-background="new 0 0 48 48" xml:space="preserve">
<path fill="#607D8B" d="M31,35H9c-1.1,0-2-0.9-2-2V20c0-1.1,0.9-2,2-2h22c1.1,0,2,0.9,2,2v13C33,34.1,32.1,35,31,35z M15.9,46
	l4.1-7.8l4,7.8h4l-4-8l-2.1-2.5h-3.7L16,38l-4,8H15.9z"/>
<path fill="#455A64" d="M34,11c0,3.9-3.1,7-7,7s-7-3.1-7-7s3.1-7,7-7S34,7.1,34,11 M20,11c0-3.9-3.1-7-7-7s-7,3.1-7,7s3.1,7,7,7
	S20,14.9,20,11 M17,29h10v-6H17V29z M26,35H14v3h12V35z M33,30l9,4V19l-9,4V30z"/>
<path fill="#C5CAE9" d="M29,11c0,1.1-0.9,2-2,2c-1.1,0-2-0.9-2-2s0.9-2,2-2C28.1,9,29,9.9,29,11 M15,11c0-1.1-0.9-2-2-2
	c-1.1,0-2,0.9-2,2s0.9,2,2,2C14.1,13,15,12.1,15,11"/>
</svg>
