<?xml version="1.0" encoding="iso-8859-1"?>
<!-- Generator: Adobe Illustrator 19.1.1, SVG Export Plug-In . SVG Version: 6.00 Build 0)  -->
<svg version="1.1" id="Layer_1" xmlns="http://www.w3.org/2000/svg" xmlns:xlink="http://www.w3.org/1999/xlink" x="0px" y="0px"
	 viewBox="0 0 40 40" style="enable-background:new 0 0 40 40;" xml:space="preserve">
<g>
	<rect x="1.5" y="9.5" style="fill:#8BB7F0;" width="36" height="21"/>
	<g>
		<path style="fill:#4E7AB5;" d="M37,10v20H2V10H37 M38,9H1v22h37V9L38,9z"/>
	</g>
</g>
<g>
	<polygon style="fill:#7496C4;" points="30,30 16,30 16,16 	"/>
</g>
<g>
	<g>
		<path style="fill:#4E7AB5;" d="M37,6v3H2V6H37 M38,5H1v5h37V5L38,5z"/>
	</g>
</g>
<rect x="5" y="5" style="fill:#4E7AB5;" width="1" height="5"/>
<rect x="9" y="5" style="fill:#4E7AB5;" width="1" height="5"/>
<rect x="13" y="5" style="fill:#4E7AB5;" width="1" height="5"/>
<rect x="17" y="5" style="fill:#4E7AB5;" width="1" height="5"/>
<rect x="21" y="5" style="fill:#4E7AB5;" width="1" height="5"/>
<rect x="25" y="5" style="fill:#4E7AB5;" width="1" height="5"/>
<rect x="29" y="5" style="fill:#4E7AB5;" width="1" height="5"/>
<rect x="33" y="5" style="fill:#4E7AB5;" width="1" height="5"/>
<g>
	<g>
		<path style="fill:#4E7AB5;" d="M37,31v3H2v-3H37 M38,30H1v5h37V30L38,30z"/>
	</g>
</g>
<rect x="5" y="30" style="fill:#4E7AB5;" width="1" height="5"/>
<rect x="9" y="30" style="fill:#4E7AB5;" width="1" height="5"/>
<rect x="13" y="30" style="fill:#4E7AB5;" width="1" height="5"/>
<rect x="17" y="30" style="fill:#4E7AB5;" width="1" height="5"/>
<rect x="21" y="30" style="fill:#4E7AB5;" width="1" height="5"/>
<rect x="25" y="30" style="fill:#4E7AB5;" width="1" height="5"/>
<rect x="29" y="30" style="fill:#4E7AB5;" width="1" height="5"/>
<rect x="33" y="30" style="fill:#4E7AB5;" width="1" height="5"/>
<g>
	<polygon style="fill:#F5CE85;" points="19.058,23.704 16.784,16.784 23.681,19.059 26.208,21.584 21.892,26.539 	"/>
	<path style="fill:#967A44;" d="M17.568,17.569l5.843,1.927l2.112,2.112l-3.657,4.199l-2.372-2.372L17.568,17.569 M16,15.999
		l2.62,7.975l3.298,3.298l4.973-5.71l-2.94-2.94L16,15.999L16,15.999z"/>
</g>
<g>
	<path style="fill:#F78F8F;" d="M36.223,39.5c-0.875,0-1.698-0.341-2.317-0.96l-2.196-2.196l4.635-4.635l2.196,2.196
		c0.619,0.619,0.96,1.442,0.96,2.317c0,0.876-0.341,1.698-0.96,2.317S37.098,39.5,36.223,39.5z"/>
	<g>
		<path style="fill:#C74343;" d="M36.344,32.416l1.843,1.842c1.083,1.083,1.083,2.845,0,3.928C37.662,38.711,36.965,39,36.223,39
			c-0.742,0-1.439-0.289-1.964-0.813l-1.843-1.842L36.344,32.416 M36.344,31.002l-5.342,5.342l2.55,2.55
			C34.289,39.631,35.256,40,36.223,40s1.933-0.369,2.671-1.106c1.475-1.475,1.475-3.867,0-5.342L36.344,31.002L36.344,31.002z"/>
	</g>
</g>
<g>
	<path style="fill:#FFEEA3;" d="M19.67,24.315c0.532-0.232,0.972-0.721,1.089-1.562c1.245-0.199,1.773-1.186,1.934-1.958
		c0.468-0.073,0.856-0.267,1.157-0.579c0.18-0.187,0.307-0.394,0.396-0.595l10.584,10.572l-4.634,4.635L19.67,24.315z"/>
	<g>
		<path style="fill:#BA9B48;" d="M24.337,20.42l9.784,9.774l-3.928,3.928l-9.731-9.721c0.328-0.287,0.59-0.689,0.726-1.232
			c1.056-0.305,1.653-1.138,1.909-1.952c0.524-0.147,0.882-0.416,1.111-0.654C24.254,20.517,24.297,20.469,24.337,20.42
			 M23.951,18.621c0,0,0.061,1.708-1.703,1.708c0,0-0.061,1.961-1.958,1.961c0,1.531-1.028,1.696-1.471,1.696
			c-0.121,0-0.199-0.012-0.199-0.012l11.574,11.562l5.342-5.342L23.951,18.621L23.951,18.621z"/>
	</g>
</g>
<g>
	
		<rect x="30.462" y="31.337" transform="matrix(-0.7071 0.7071 -0.7071 -0.7071 81.453 33.7386)" style="fill:#D9E7F5;" width="6.555" height="4.804"/>
	<g>
		<path style="fill:#788B9C;" d="M34.358,30.43l2.69,2.69l-3.928,3.928l-2.69-2.69L34.358,30.43 M34.358,29.016l-5.342,5.342
			l4.104,4.104l5.342-5.342L34.358,29.016L34.358,29.016z"/>
	</g>
</g>
<g>
	<polygon style="fill:#967A44;" points="17.587,20.83 20.5,17.484 16,16 	"/>
</g>
</svg>
