<?xml version="1.0" encoding="utf-8"?>
<!-- Generator: Adobe Illustrator 19.1.1, SVG Export Plug-In . SVG Version: 6.00 Build 0)  -->
<svg version="1.1"  xmlns="http://www.w3.org/2000/svg" xmlns:xlink="http://www.w3.org/1999/xlink" x="0px" y="0px"
	 viewBox="0 0 48 48" enable-background="new 0 0 48 48" xml:space="preserve">
<path fill="#0277BD" d="M31,34c-0.7,0-1.4,0.2-2,0.5c0-0.1-0.1-0.1-0.1-0.2c-0.5-0.9-2.7-4.6-2.8-4.7c-0.1-0.1-0.2-0.2-0.4-0.3
	c-0.2,0-0.3,0.1-0.5,0.2l-1.9,2.3c-0.1,0.1-0.1,0.2-0.1,0.4c0,0,0,0.1,0,0.1c0,0.2,0.1,0.3,0.2,0.4c2.1,1.4,3,3,3.7,4.5
	C27,37.4,27,37.7,27,38c0,2.2,1.8,4,4,4s4-1.8,4-4C35,35.8,33.2,34,31,34z M32.4,39.6C32,39.9,31.5,40,30.9,40
	c-1.1-0.1-1.9-1.1-1.9-2.2c0-0.5,0.2-1,0.6-1.3c0.4-0.4,1-0.6,1.6-0.5c1.1,0.1,1.8,1,1.8,2.1C33,38.7,32.8,39.2,32.4,39.6z"/>
<path fill="#3F51B5" d="M5,6v24h12h7h19V6H5z M13,10h-2V8h2V10z M9,10H7V8h2V10z M17,10h-2V8h2V10z M21,10h-2V8h2V10z M25,10h-2V8h2
	V10z M29,10h-2V8h2V10z M33,10h-2V8h2V10z M37,10h-2V8h2V10z M41,10h-2V8h2V10z M13,28h-2v-2h2V28z M9,28H7v-2h2V28z M17,28h-2v-2h2
	V28z M21,28h-2v-2h2V28z M25,28h-2v-2h2V28z M29,28h-2v-2h2V28z M33,28h-2v-2h2V28z M37,28h-2v-2h2V28z M41,28h-2v-2h2V28z"/>
<path fill="#03A9F4" d="M32.2,15.5L31.7,15L21.1,29.6c-0.1,0.2-2.4,3.9-2.9,4.8c0,0-0.1,0.1-0.1,0.2C17.5,34.2,16.8,34,16,34
	c-2.2,0-4,1.8-4,4c0,2.2,1.8,4,4,4s4-1.8,4-4c0-0.2,0-0.4-0.1-0.5c0.8-1.9,1.8-3.7,4.6-5.3c0.1,0,0.1-0.1,0.2-0.2L32,21.6
	c0-0.1,1-1.6,1-3.4C33,17.2,32.8,16.3,32.2,15.5z M16.1,40c-0.5,0.1-1-0.1-1.4-0.4c-0.4-0.3-0.6-0.9-0.6-1.4c0-1.1,0.8-2,1.8-2.1
	c0.6-0.1,1.2,0.1,1.6,0.5c0.4,0.3,0.6,0.8,0.6,1.3C18,38.9,17.1,39.9,16.1,40z"/>
<circle fill="#0277BD" cx="23.7" cy="29.7" r="0.7"/>
</svg>
